<svg xmlns="http://www.w3.org/2000/svg" version="1.1" xmlns:xlink="http://www.w3.org/1999/xlink" xmlns:svgjs="http://svgjs.dev/svgjs" viewBox="0 0 800 800"><defs><linearGradient x1="50%" y1="0%" x2="50%" y2="100%" id="vvvortex-grad"><stop stop-color="hsl(162, 100%, 58%)" stop-opacity="1" offset="0%"></stop><stop stop-color="hsl(270, 73%, 53%)" stop-opacity="1" offset="100%"></stop></linearGradient></defs><g stroke="url(#vvvortex-grad)" fill="none" stroke-linecap="round"><circle r="363" cx="400" cy="400" stroke-width="11" stroke-dasharray="28 12" stroke-dashoffset="25" transform="rotate(277, 400, 400)" opacity="0.05"></circle><circle r="346.5" cx="400" cy="400" stroke-width="11" stroke-dasharray="13 19" stroke-dashoffset="25" transform="rotate(176, 400, 400)" opacity="0.10"></circle><circle r="330" cx="400" cy="400" stroke-width="10" stroke-dasharray="18 36" stroke-dashoffset="25" transform="rotate(143, 400, 400)" opacity="0.14"></circle><circle r="313.5" cx="400" cy="400" stroke-width="10" stroke-dasharray="19 19" stroke-dashoffset="25" transform="rotate(221, 400, 400)" opacity="0.19"></circle><circle r="297" cx="400" cy="400" stroke-width="10" stroke-dasharray="51 22" stroke-dashoffset="25" transform="rotate(168, 400, 400)" opacity="0.23"></circle><circle r="280.5" cx="400" cy="400" stroke-width="10" stroke-dasharray="49 40" stroke-dashoffset="25" transform="rotate(242, 400, 400)" opacity="0.28"></circle><circle r="264" cx="400" cy="400" stroke-width="9" stroke-dasharray="48 26" stroke-dashoffset="25" transform="rotate(160, 400, 400)" opacity="0.32"></circle><circle r="247.5" cx="400" cy="400" stroke-width="9" stroke-dasharray="25 32" stroke-dashoffset="25" transform="rotate(171, 400, 400)" opacity="0.37"></circle><circle r="231" cx="400" cy="400" stroke-width="9" stroke-dasharray="49 40" stroke-dashoffset="25" transform="rotate(246, 400, 400)" opacity="0.41"></circle><circle r="214.5" cx="400" cy="400" stroke-width="8" stroke-dasharray="24 53" stroke-dashoffset="25" transform="rotate(305, 400, 400)" opacity="0.46"></circle><circle r="198" cx="400" cy="400" stroke-width="8" stroke-dasharray="42 54" stroke-dashoffset="25" transform="rotate(240, 400, 400)" opacity="0.50"></circle><circle r="181.5" cx="400" cy="400" stroke-width="8" stroke-dasharray="22 17" stroke-dashoffset="25" transform="rotate(226, 400, 400)" opacity="0.55"></circle><circle r="165" cx="400" cy="400" stroke-width="8" stroke-dasharray="53 21" stroke-dashoffset="25" transform="rotate(304, 400, 400)" opacity="0.59"></circle><circle r="148.5" cx="400" cy="400" stroke-width="7" stroke-dasharray="43 55" stroke-dashoffset="25" transform="rotate(55, 400, 400)" opacity="0.64"></circle><circle r="132" cx="400" cy="400" stroke-width="7" stroke-dasharray="39 35" stroke-dashoffset="25" transform="rotate(268, 400, 400)" opacity="0.68"></circle><circle r="115.5" cx="400" cy="400" stroke-width="7" stroke-dasharray="27 24" stroke-dashoffset="25" transform="rotate(7, 400, 400)" opacity="0.73"></circle><circle r="99" cx="400" cy="400" stroke-width="6" stroke-dasharray="23 53" stroke-dashoffset="25" transform="rotate(334, 400, 400)" opacity="0.77"></circle><circle r="82.5" cx="400" cy="400" stroke-width="6" stroke-dasharray="20 26" stroke-dashoffset="25" transform="rotate(337, 400, 400)" opacity="0.82"></circle><circle r="66" cx="400" cy="400" stroke-width="6" stroke-dasharray="23 20" stroke-dashoffset="25" transform="rotate(164, 400, 400)" opacity="0.86"></circle><circle r="49.5" cx="400" cy="400" stroke-width="6" stroke-dasharray="17 24" stroke-dashoffset="25" transform="rotate(176, 400, 400)" opacity="0.91"></circle><circle r="33" cx="400" cy="400" stroke-width="5" stroke-dasharray="27 46" stroke-dashoffset="25" transform="rotate(152, 400, 400)" opacity="0.95"></circle><circle r="16.5" cx="400" cy="400" stroke-width="5" stroke-dasharray="17 35" stroke-dashoffset="25" transform="rotate(303, 400, 400)" opacity="1.00"></circle></g></svg>